<mxfile host="app.diagrams.net" modified="2021-01-07T07:49:36.202Z" agent="5.0 (Windows NT 10.0; Win64; x64) AppleWebKit/537.36 (KHTML, like Gecko) Chrome/87.0.4280.88 Safari/537.36" etag="makvikx14zKaIBjMHmih" version="14.1.2" type="github">
  <diagram id="2o_S6m8AGe0aLNlwkB8m" name="Page-1">
    <mxGraphModel dx="1422" dy="762" grid="1" gridSize="10" guides="1" tooltips="1" connect="1" arrows="1" fold="1" page="1" pageScale="1" pageWidth="827" pageHeight="1169" math="0" shadow="0">
      <root>
        <mxCell id="0" />
        <mxCell id="1" parent="0" />
        <mxCell id="ZwNErVk4smQ6sCANkdnV-6" value="" style="rounded=1;whiteSpace=wrap;html=1;fontSize=16;fillColor=#d5e8d4;strokeColor=#82b366;sketch=0;shadow=1;arcSize=6;" vertex="1" parent="1">
          <mxGeometry x="90" y="490" width="390" height="220" as="geometry" />
        </mxCell>
        <mxCell id="ZwNErVk4smQ6sCANkdnV-7" value="云桌面外层网络" style="text;html=1;strokeColor=none;fillColor=none;align=center;verticalAlign=middle;whiteSpace=wrap;rounded=0;fontSize=16;" vertex="1" parent="1">
          <mxGeometry x="230" y="460" width="130" height="20" as="geometry" />
        </mxCell>
        <mxCell id="ZwNErVk4smQ6sCANkdnV-8" value="" style="rounded=1;whiteSpace=wrap;html=1;fontSize=16;shadow=1;arcSize=7;fillColor=#dae8fc;strokeColor=#6c8ebf;" vertex="1" parent="1">
          <mxGeometry x="680" y="490" width="390" height="220" as="geometry" />
        </mxCell>
        <mxCell id="ZwNErVk4smQ6sCANkdnV-9" value="云桌面内层网络" style="text;html=1;strokeColor=none;fillColor=none;align=center;verticalAlign=middle;whiteSpace=wrap;rounded=0;fontSize=16;" vertex="1" parent="1">
          <mxGeometry x="810" y="450" width="130" height="20" as="geometry" />
        </mxCell>
        <mxCell id="ZwNErVk4smQ6sCANkdnV-10" value="A" style="fontColor=#0066CC;verticalAlign=top;verticalLabelPosition=bottom;labelPosition=center;align=center;html=1;outlineConnect=0;fillColor=#CCCCCC;strokeColor=#6881B3;gradientColor=none;gradientDirection=north;strokeWidth=2;shape=mxgraph.networks.desktop_pc;" vertex="1" parent="1">
          <mxGeometry x="730" y="540" width="30" height="60" as="geometry" />
        </mxCell>
        <mxCell id="ZwNErVk4smQ6sCANkdnV-11" value="B" style="fontColor=#0066CC;verticalAlign=top;verticalLabelPosition=bottom;labelPosition=center;align=center;html=1;outlineConnect=0;fillColor=#CCCCCC;strokeColor=#6881B3;gradientColor=none;gradientDirection=north;strokeWidth=2;shape=mxgraph.networks.desktop_pc;" vertex="1" parent="1">
          <mxGeometry x="813" y="540" width="30" height="60" as="geometry" />
        </mxCell>
        <mxCell id="ZwNErVk4smQ6sCANkdnV-12" value="C" style="fontColor=#0066CC;verticalAlign=top;verticalLabelPosition=bottom;labelPosition=center;align=center;html=1;outlineConnect=0;fillColor=#CCCCCC;strokeColor=#6881B3;gradientColor=none;gradientDirection=north;strokeWidth=2;shape=mxgraph.networks.desktop_pc;" vertex="1" parent="1">
          <mxGeometry x="900" y="540" width="30" height="60" as="geometry" />
        </mxCell>
        <mxCell id="ZwNErVk4smQ6sCANkdnV-13" value="D" style="fontColor=#0066CC;verticalAlign=top;verticalLabelPosition=bottom;labelPosition=center;align=center;html=1;outlineConnect=0;fillColor=#CCCCCC;strokeColor=#6881B3;gradientColor=none;gradientDirection=north;strokeWidth=2;shape=mxgraph.networks.desktop_pc;" vertex="1" parent="1">
          <mxGeometry x="980" y="540" width="30" height="60" as="geometry" />
        </mxCell>
        <mxCell id="ZwNErVk4smQ6sCANkdnV-14" value="O" style="pointerEvents=1;shadow=0;dashed=0;html=1;strokeColor=none;fillColor=#505050;labelPosition=center;verticalLabelPosition=bottom;verticalAlign=top;outlineConnect=0;align=center;shape=mxgraph.office.devices.workstation_pc;rounded=1;fontSize=16;" vertex="1" parent="1">
          <mxGeometry x="130" y="526" width="53" height="59" as="geometry" />
        </mxCell>
        <mxCell id="ZwNErVk4smQ6sCANkdnV-15" value="P" style="pointerEvents=1;shadow=0;dashed=0;html=1;strokeColor=none;fillColor=#505050;labelPosition=center;verticalLabelPosition=bottom;verticalAlign=top;outlineConnect=0;align=center;shape=mxgraph.office.devices.workstation_pc;rounded=1;fontSize=16;" vertex="1" parent="1">
          <mxGeometry x="240" y="526" width="53" height="59" as="geometry" />
        </mxCell>
        <mxCell id="ZwNErVk4smQ6sCANkdnV-16" value="Q" style="pointerEvents=1;shadow=0;dashed=0;html=1;strokeColor=none;fillColor=#505050;labelPosition=center;verticalLabelPosition=bottom;verticalAlign=top;outlineConnect=0;align=center;shape=mxgraph.office.devices.workstation_pc;rounded=1;fontSize=16;" vertex="1" parent="1">
          <mxGeometry x="340" y="526" width="53" height="59" as="geometry" />
        </mxCell>
        <mxCell id="ZwNErVk4smQ6sCANkdnV-17" value="互联网" style="text;html=1;strokeColor=none;fillColor=none;align=center;verticalAlign=middle;whiteSpace=wrap;rounded=0;fontSize=16;" vertex="1" parent="1">
          <mxGeometry x="600" y="50" width="130" height="20" as="geometry" />
        </mxCell>
        <mxCell id="ZwNErVk4smQ6sCANkdnV-19" value="" style="rounded=1;whiteSpace=wrap;html=1;fontSize=16;fillColor=#fff2cc;strokeColor=#d6b656;sketch=0;shadow=1;arcSize=6;" vertex="1" parent="1">
          <mxGeometry x="227" y="80" width="600" height="270" as="geometry" />
        </mxCell>
        <mxCell id="ZwNErVk4smQ6sCANkdnV-2" value="Internet" style="ellipse;shape=cloud;whiteSpace=wrap;html=1;fontSize=16;" vertex="1" parent="1">
          <mxGeometry x="480" y="40" width="120" height="80" as="geometry" />
        </mxCell>
        <mxCell id="ZwNErVk4smQ6sCANkdnV-20" value="E" style="fontColor=#0066CC;verticalAlign=top;verticalLabelPosition=bottom;labelPosition=center;align=center;html=1;outlineConnect=0;fillColor=#CCCCCC;strokeColor=#6881B3;gradientColor=none;gradientDirection=north;strokeWidth=2;shape=mxgraph.networks.desktop_pc;rounded=1;shadow=1;sketch=0;" vertex="1" parent="1">
          <mxGeometry x="512" y="160" width="30" height="60" as="geometry" />
        </mxCell>
      </root>
    </mxGraphModel>
  </diagram>
</mxfile>
